<svg version="1" xmlns="http://www.w3.org/2000/svg" width="933.333" height="933.333" viewBox="0 0 700.000000 700.000000"><path d="M131.8 51.8L52 52v446h148.6v72.2c-.1 39.8 0 73.2.2 74.4l.4 2.1 120.6-.2c66.4-.1 122.7-.6 125.2-.9 18.2-2.7 25-4.1 36.1-7.1 37.5-10.4 69.6-29.1 97.5-56.9 19-19 31.2-35.8 42.8-59.3 12-24 18.4-46.2 22.2-76.3 2.1-16.8.5-47.5-3.5-67.5-8.3-41.4-29.8-81.2-60.6-112-25-25.1-52.1-41.9-88.6-55-4.3-1.6-4.8-2-6.5-7.3-1-3.2-2.1-6.2-2.5-6.7-.3-.6-1.2-2.8-1.9-4.9-2.3-7-10.2-22.8-16.7-33.5-22.5-36.4-53.9-65.2-91.6-83.8-11-5.5-29.1-12.6-36.2-14.4-2.2-.5-4.7-1.1-5.5-1.4-.8-.2-4.6-1.1-8.5-2-6.9-1.6-8.8-2-17.5-3.1-2.4-.3-4.8-.8-5.2-1.1-2.2-1.3-66.9-1.9-169-1.5zm162.7 67.1c14.4 2.3 25 4.9 34.9 8.6 25.1 9.4 46.1 23.9 63.3 43.5 7.9 9 20.7 27.5 19.9 28.8-.3.5-48 .8-106 .8-69.7-.1-105.6.2-105.7.9 0 .5-.2 52.7-.2 116l-.2 114.9-40.8.1c-26.2 0-41.1-.4-41.5-1-.7-1-1.1-311.1-.5-313 .5-1.5 167.4-1.1 176.8.4z"/></svg>